<svg xmlns="http://www.w3.org/2000/svg" width="256" height="256"><path fill-opacity=".016" d="M0 128.004v128.004l128.25-.254 128.25-.254.254-127.75L257.008 0H0v128.004m.485.496c0 70.4.119 99.053.265 63.672.146-35.38.146-92.98 0-128C.604 29.153.485 58.1.485 128.5" fill="#1976D2" fill-rule="evenodd"/><path fill-opacity=".275" d="M167 1.426c-15.35 3.234-29.955 9.978-43.732 20.195-11.744 8.709-65.844 63.181-71.79 72.284C38.562 113.676 32 138.543 32 167.714c0 8.499.386 15.303.858 15.119.473-.183 21.182-20.358 46.021-44.833 24.839-24.475 46.037-44.899 47.107-45.387 3.715-1.696 10.836 5.223 9.549 9.278-.347 1.093-30.35 31.603-66.672 67.799C32.54 205.885 2.187 236.715 1.411 238.2c-5.088 9.737 6.217 21.602 15.905 16.693 1.201-.609 9.87-8.74 19.265-18.07l17.081-16.964 8.419 1.6c33.438 6.358 72.624-.03 97.419-15.881 7.064-4.515 17.491-12.756 17.496-13.828.002-.412-10.008-.786-22.246-.829l-22.25-.079 34.736-11.671 34.737-11.671 11.496-11.467c6.358-6.341 11.115-11.849 10.643-12.321-.47-.47-10.776-.71-22.902-.533-12.126.176-21.918.192-21.76.035.158-.157 14.155-4.91 31.104-10.563l30.817-10.279 3.247-5.864c8.134-14.689 12.559-35.434 10.631-49.84-2.417-18.066-8.785-30.472-22.672-44.168-10.482-10.339-16.989-14.502-29.306-18.747C192.773.134 177.715-.832 167 1.426" fill="#1976D2" fill-rule="evenodd"/><path fill-opacity=".247" d="M171.814 1.025c-17.118 2.671-34.915 10.528-49.346 21.785-10.64 8.299-60.026 57.02-66.766 65.866-11.755 15.43-18.578 33.132-22.144 57.452-1.562 10.655-2.12 32.243-.915 35.383.491 1.28 11.386-9.06 46.275-43.918 50.06-50.016 48.244-48.585 54.159-42.67 6.097 6.098 9.53 2.064-64.383 75.647C16.782 222.25 1.183 238.336.716 240.671c-1.744 8.718 5.478 16.3 14.032 14.733 3.144-.576 6.668-3.554 21.752-18.378l18-17.691 5.5 1.304c16.081 3.811 45.143 3.516 62.83-.638 17.796-4.181 36.229-13.006 48.348-23.148l5.201-4.353-23.439-.5-23.44-.5 35.5-11.862 35.5-11.863 11.768-11.637 11.767-11.638-23.267-.5-23.268-.5 31.5-10.577c35.644-11.969 33.079-10.355 38.977-24.522 5.1-12.251 7.025-21.4 7.008-33.311-.018-12.865-1.807-20.995-6.954-31.59-13.907-28.631-46.947-47.044-76.217-42.475" fill="#1976D2" fill-rule="evenodd"/><path fill-opacity=".985" d="M166 2.522c-17.574 3.606-33.183 11.655-49.5 25.526C104.003 38.671 57.76 85.823 53.29 92.5c-5.276 7.881-10.028 17.393-12.887 25.791-5.486 16.115-9.211 42.591-7.925 56.316l.699 7.463 45.788-45.035c50.003-49.181 48.402-47.932 54.23-42.348 6.227 5.966 9.552 2.043-64.695 76.32L1 238.534v4.833c0 4.163.471 5.304 3.4 8.233 2.92 2.92 4.076 3.4 8.189 3.4h4.788l18.09-17.994 18.09-17.994 7.971 1.683c11.505 2.428 44.648 2.425 56.747-.006 18.378-3.692 37.615-12.26 50.7-22.58l7.111-5.609-23.793-.5-23.793-.5 36.524-12.258 36.525-12.258 11.44-11.473 11.441-11.474-23.965-.268-23.965-.269 32.372-10.874 32.372-10.874 4.318-9.126c7.079-14.965 8.931-22.933 8.86-38.126-.053-11.293-.41-14.051-2.716-21-6.68-20.129-22.688-37.723-42.492-46.702C196.794 1.166 180.475-.449 166 2.522" fill="#1976D2" fill-rule="evenodd"/></svg>